<?xml version="1.0" standalone="no"?>
<!DOCTYPE svg PUBLIC "-//W3C//DTD SVG 20010904//EN"
 "http://www.w3.org/TR/2001/REC-SVG-20010904/DTD/svg10.dtd">
<svg version="1.0" xmlns="http://www.w3.org/2000/svg"
 width="1080.000000pt" height="1080.000000pt" viewBox="0 0 1080.000000 1080.000000"
 preserveAspectRatio="xMidYMid meet">
<metadata>
Created by potrace 1.11, written by Peter Selinger 2001-2013
</metadata>
<g transform="translate(0.000000,1080.000000) scale(0.100000,-0.100000)"
fill="#000000" stroke="none">
<path d="M2128 8335 c-2 -1 -41 -5 -88 -8 -362 -26 -662 -169 -858 -410 -108
-133 -190 -305 -216 -452 -3 -16 -10 -55 -16 -85 -14 -67 -21 -195 -23 -400
l-2 -155 -262 0 c-144 0 -264 -3 -267 -6 -5 -4 -9 -479 -6 -741 l0 -48 269 0
269 0 0 -1487 c0 -819 1 -1499 1 -1513 l1 -25 513 1 c281 1 519 2 527 3 13 1
15 176 15 1509 l0 1507 378 3 c291 2 377 5 378 15 6 54 4 764 -2 772 -5 7
-138 10 -378 10 -242 0 -372 3 -374 10 -8 22 1 333 11 376 50 206 173 283 437
275 61 -3 123 -7 139 -10 15 -4 57 -14 93 -22 36 -8 69 -11 73 -7 4 4 12 33
19 63 17 84 19 89 41 180 12 47 23 94 26 105 2 11 15 70 30 130 14 61 28 117
29 125 2 8 12 51 23 95 l20 80 -27 11 c-29 13 -252 61 -321 69 -25 3 -56 8
-68 11 -41 9 -377 25 -384 19z"/>
<path d="M5290 7139 c0 -818 -2 -959 -14 -959 -8 0 -32 33 -54 73 -164 297
-396 494 -677 574 -138 38 -398 57 -550 38 -377 -46 -723 -240 -952 -533 -106
-135 -166 -239 -258 -447 -25 -56 -85 -263 -98 -335 -3 -14 -8 -43 -12 -65 -4
-22 -9 -49 -11 -60 -2 -11 -6 -40 -9 -65 -3 -25 -8 -58 -10 -75 -22 -153 -23
-587 0 -745 2 -14 6 -50 10 -80 17 -147 86 -417 140 -545 151 -359 385 -635
672 -791 133 -73 306 -136 412 -150 25 -3 49 -8 53 -10 12 -8 138 -17 228 -17
291 -2 491 54 705 196 121 81 276 259 363 417 19 35 38 56 51 58 25 4 23 35
23 -330 0 -199 4 -278 12 -279 50 -4 1020 -3 1025 1 5 3 8 1149 8 2546 l0
2541 -529 1 -528 0 0 -959z m-615 -1126 c78 -16 151 -45 217 -85 64 -38 184
-156 223 -218 94 -149 161 -349 181 -541 3 -35 8 -67 10 -71 6 -10 5 -315 -1
-373 -36 -328 -134 -573 -296 -734 -140 -141 -286 -200 -494 -201 -209 -1
-365 59 -493 190 -79 80 -81 83 -125 152 -85 135 -154 343 -173 521 -2 29 -7
62 -10 75 -5 25 -5 309 0 357 27 246 57 361 136 520 41 83 79 140 139 210 4 6
30 30 57 53 88 78 198 128 332 152 67 12 227 8 297 -7z"/>
<path d="M6649 6769 c-1 -2 -2 -243 -3 -536 l-1 -532 75 -17 c41 -9 102 -23
135 -31 33 -8 71 -17 85 -20 14 -2 61 -13 105 -24 44 -11 93 -22 109 -25 37
-6 240 -52 286 -64 27 -7 401 -93 500 -115 56 -12 395 -89 485 -110 60 -14
119 -27 130 -29 11 -2 38 -9 60 -15 33 -9 391 -89 475 -107 75 -16 98 -25 103
-44 4 -15 0 -20 -13 -20 -10 0 -118 -25 -241 -56 -123 -31 -233 -58 -245 -60
-12 -2 -223 -54 -470 -115 -247 -61 -456 -112 -465 -114 -8 -2 -155 -38 -325
-80 -170 -42 -317 -78 -326 -81 -10 -2 -27 -6 -38 -9 -11 -3 -28 -7 -37 -9
-162 -37 -370 -91 -378 -97 -7 -5 -10 -185 -10 -530 0 -456 2 -522 15 -524 8
-2 74 -17 145 -34 72 -18 213 -52 315 -76 102 -25 286 -69 410 -99 124 -30
295 -71 380 -91 149 -36 299 -72 940 -226 162 -39 309 -74 325 -78 20 -5 30
-13 30 -26 0 -15 -20 -23 -120 -47 -66 -15 -131 -30 -145 -33 -43 -8 -59 -12
-285 -65 -121 -28 -230 -53 -242 -56 -12 -2 -69 -15 -125 -29 -57 -13 -114
-26 -128 -29 -14 -2 -65 -14 -115 -26 -49 -11 -148 -35 -220 -51 -71 -17 -168
-40 -215 -51 -47 -11 -193 -44 -325 -75 -132 -30 -298 -68 -370 -85 -71 -16
-142 -32 -157 -34 -15 -3 -47 -11 -70 -17 l-43 -13 0 -528 c0 -395 3 -530 11
-533 7 -2 42 5 79 16 37 12 77 23 89 25 19 5 317 85 626 170 179 50 750 205
960 261 47 13 159 43 250 68 91 25 190 52 220 61 30 8 123 33 205 56 83 22
157 42 165 44 8 2 141 38 295 81 154 42 422 114 595 161 173 47 316 87 318 89
3 3 5 824 3 1056 l-1 65 -87 22 c-49 12 -153 40 -233 63 -80 22 -154 42 -164
44 -10 3 -33 9 -51 15 -18 6 -41 12 -51 15 -10 2 -136 36 -279 75 -143 39
-291 80 -330 90 -38 10 -96 26 -129 35 -32 8 -100 27 -150 41 -50 14 -98 28
-106 30 -52 13 -114 29 -355 96 -145 40 -182 50 -253 68 -186 49 -212 59 -212
85 0 14 3 25 6 25 7 0 341 89 379 101 39 12 285 80 307 84 9 2 65 18 125 35
59 17 121 33 137 36 16 3 32 7 36 9 7 4 323 91 435 120 28 7 124 33 215 58
411 114 646 178 660 182 93 20 100 25 101 60 0 19 0 253 0 520 0 267 0 504 0
528 l-1 43 -122 32 c-68 18 -127 34 -133 36 -5 1 -23 6 -40 11 -16 4 -111 30
-210 57 -99 27 -221 60 -271 73 -50 13 -116 31 -146 40 -31 8 -64 17 -74 20
-11 2 -161 43 -334 90 -307 84 -610 166 -1130 306 -140 38 -302 83 -360 99
-58 16 -297 81 -531 144 -235 64 -434 119 -443 122 -9 3 -17 5 -17 3z"/>
</g>
</svg>
